<?xml version="1.0" encoding="utf-8"?>
<!-- Generator: Adobe Illustrator 19.0.0, SVG Export Plug-In . SVG Version: 6.00 Build 0)  -->
<svg version="1.1" id="layer" xmlns="http://www.w3.org/2000/svg" xmlns:xlink="http://www.w3.org/1999/xlink" x="0px" y="0px"
	 viewBox="-153 -46 652 652" style="enable-background:new -153 -46 652 652;" xml:space="preserve">
<style type="text/css">
	.st0{fill:#FF6300;}
</style>
<path id="hudl" d="M149.4,241.1c-6.4,0-12.7,1.2-18.6,3.5v-49.5H93.1v152.4h37.7v-75.7c2.5-1.1,5.2-1.6,8-1.6
	c8,0,11.5,3.9,11.5,11.1v66.2h37.7v-70.3C187.9,253.9,174.7,241.1,149.4,241.1L149.4,241.1z M260,318.6c-1.6,0.6-4.5,1-8,1
	c-7,0-10.7-2.9-10.7-9.5v-67.2h-37.7v66.2c0,29.3,16.1,41,48.4,41c17.5,0,35.5-3.1,45.6-7.8v-99.4H260V318.6L260,318.6z
	 M373.8,243.4c-3.6-1-7.3-1.5-11.1-1.6c-32.8,0-49.5,20.8-49.5,53.2c0,35.9,19.2,55,55,55c18.4,0,34.4-3.3,43.3-7.8V195.1h-37.7
	L373.8,243.4L373.8,243.4z M373.8,320.1c-1.4,0.6-3.9,0.8-6.4,0.8c-10.7,0-16.5-8.3-16.5-26.2c0-15.1,5.6-25.1,16.1-25.1
	c2.7,0,5.6,0.6,6.8,1.2V320.1L373.8,320.1z M431.4,195.1v152.4h37.7V195.1H431.4L431.4,195.1z"/>
<path id="mark" class="st0" d="M-32.4,373.5c-15.6,0-29.1-10.6-32.8-25.8c0-0.2-0.2-0.4-0.4-0.4c-4.4-1.8-8.7-3.9-12.8-6.4
	c-0.1-0.1-0.2-0.2-0.3-0.3c-6-15.5-7.5-32.3-4.4-48.6c0-0.2,0.2-0.4,0.4-0.5h0.1c0.2,0,0.4,0,0.5,0.2c8.2,8.9,18.2,16,29.3,20.9
	c0.1,0,0.2,0.1,0.3,0c0.1,0,0.3,0,0.4-0.1c14.6-10.5,35-7.6,46.1,6.6c0.1,0.2,0.3,0.2,0.5,0.2h0.1c3.1-0.4,6.2-1,9.3-1.7
	c18.3-4.5,34.8-14.6,47-28.9c0.1-0.1,0.3-0.2,0.5-0.2c0.1,0,0.2,0,0.3,0.1c0.3,0.1,0.4,0.4,0.3,0.7c-7.4,26.1-26.3,47.4-51.4,57.8
	c-0.2,0.1-0.3,0.2-0.4,0.4C-3.3,362.8-16.8,373.5-32.4,373.5z M-95.3,327.4c-0.2,0-0.3-0.1-0.4-0.2c-19-19.3-28-46.4-24.3-73.3
	c0-0.2,0-0.4-0.2-0.5c-11.4-10.7-13.9-27.7-6.2-41.2c7.7-13.5,23.7-20,38.7-15.6c0.2,0.1,0.4,0,0.6-0.1c3.8-3,7.8-5.7,12-8
	c0.1-0.1,0.2-0.1,0.3-0.1c16.5,2.5,31.9,9.7,44.5,20.5c0.2,0.2,0.3,0.4,0.2,0.6c-0.1,0.2-0.2,0.4-0.5,0.5
	c-11.9,2.7-23,7.8-32.8,14.9c-0.2,0.1-0.3,0.3-0.3,0.6c0.1,1.1,0.2,2.3,0.2,3.4c-0.1,16.7-12.4,30.8-29,33.2c-0.2,0-0.4,0.2-0.5,0.4
	c-1.2,2.9-2.2,5.9-3.1,8.9c-5.3,18.1-4.8,37.4,1.5,55.1c0.1,0.2,0,0.4-0.1,0.6C-94.9,327.3-95.1,327.4-95.3,327.4L-95.3,327.4z
	 M15,296c-0.2,0-0.4-0.1-0.5-0.2c-0.1-0.2-0.2-0.4-0.1-0.6c3.5-11.4,4.7-23.5,3.5-35.4c0-0.2-0.2-0.4-0.4-0.5
	C5.7,253.8-1.9,242-2,228.9c0-4.4,0.8-8.8,2.5-12.8c0.1-0.2,0.1-0.4-0.1-0.6c-2-2.6-4.2-5.2-6.4-7.6C-19,194.2-36,185-54.5,181.6
	c-0.3-0.1-0.5-0.3-0.5-0.6c0-0.3,0.2-0.6,0.5-0.6c26.5-6.8,54.7-0.9,76.2,16.1c0.1,0.1,0.2,0.1,0.4,0.1c0.1,0,0.1,0,0.2,0
	c3-0.9,6.2-1.4,9.4-1.4c13.8,0,26.2,8.4,31.3,21.2c5.1,12.8,1.8,27.5-8.2,36.9c-0.1,0.1-0.2,0.3-0.2,0.5c0.5,3.9,0.8,7.8,0.8,11.8
	c0,0.4,0,0.7,0,1.1l0,0.7c0,0.1-0.1,0.3-0.1,0.4c-10.4,12.9-24.2,22.7-39.9,28.2L15,296z"/>
</svg>
