<svg width="300" height="194" viewBox="0 0 300 194" fill="none" xmlns="http://www.w3.org/2000/svg">
<path d="M161.903 116.435V5.55664H180.304V116.435C180.304 120.958 181.546 125.161 184.631 128.36L184.695 128.425C187.811 131.54 191.925 132.816 196.36 132.816H294.664V151H196.36V156H299.664V127.816H196.36C192.892 127.816 190.182 126.841 188.23 124.89C186.279 122.866 185.304 120.048 185.304 116.435V0.556641H156.903V116.435C156.903 122.071 157.879 127.311 159.83 132.152C161.781 136.994 164.527 141.186 168.068 144.727C171.537 148.268 175.692 151.05 180.534 153.073C185.376 155.024 190.651 156 196.36 156V151C191.24 151 186.614 150.128 182.425 148.443C178.18 146.664 174.606 144.254 171.641 141.228L171.622 141.209L171.604 141.191C168.558 138.146 166.178 134.528 164.468 130.283C162.775 126.081 161.903 121.482 161.903 116.435Z" fill="#B3883E"/>
<path d="M147.097 116.435C147.097 122.071 146.121 127.311 144.17 132.152C142.219 136.994 139.473 141.186 135.932 144.727C132.463 148.268 128.308 151.05 123.466 153.073C118.624 155.024 113.349 156 107.64 156H4.33594V127.816H107.64C111.108 127.816 113.818 126.841 115.77 124.89C117.721 122.866 118.696 120.048 118.696 116.435V0.556641H147.097V116.435Z" fill="#F4F4F4"/>
<path d="M281.921 191.036V188.552L296.789 167.888V167.024H281.921V165.8H298.121V168.32L283.253 189.02V189.812H298.121V191.036H281.921Z" fill="#F4F4F4" fill-opacity="0.572549"/>
<path d="M250.196 191V165.8H264.92V167.024H251.492V177.5H262.76V178.724H251.492V189.776H264.92V191H250.196Z" fill="#F4F4F4" fill-opacity="0.572549"/>
<path d="M215.196 191V165.8H224.376C226.128 165.8 227.544 166.088 228.624 166.664C229.728 167.216 230.532 168.068 231.036 169.22C231.564 170.348 231.828 171.788 231.828 173.54C231.828 175.268 231.564 176.744 231.036 177.968C230.532 179.192 229.728 180.128 228.624 180.776C227.544 181.424 226.128 181.748 224.376 181.748H216.492V191H215.196ZM216.492 180.524H224.376C226.56 180.524 228.12 179.912 229.056 178.688C229.992 177.44 230.46 175.724 230.46 173.54C230.46 171.356 229.992 169.724 229.056 168.644C228.12 167.564 226.56 167.024 224.376 167.024H216.492V180.524Z" fill="#F4F4F4" fill-opacity="0.572549"/>
<path d="M186.305 191.324C183.713 191.324 181.721 190.844 180.329 189.884C178.937 188.9 177.977 187.46 177.449 185.564C176.921 183.644 176.657 181.292 176.657 178.508C176.657 175.772 176.921 173.432 177.449 171.488C178.001 169.544 178.973 168.056 180.365 167.024C181.757 165.992 183.737 165.476 186.305 165.476C188.873 165.476 190.853 165.992 192.245 167.024C193.637 168.032 194.597 169.508 195.125 171.452C195.677 173.396 195.953 175.748 195.953 178.508C195.953 181.412 195.689 183.812 195.161 185.708C194.633 187.604 193.673 189.02 192.281 189.956C190.889 190.868 188.897 191.324 186.305 191.324ZM186.305 190.1C188.633 190.1 190.385 189.692 191.561 188.876C192.737 188.036 193.529 186.764 193.937 185.06C194.369 183.332 194.585 181.148 194.585 178.508C194.585 176.012 194.357 173.888 193.901 172.136C193.469 170.384 192.653 169.04 191.453 168.104C190.277 167.168 188.561 166.7 186.305 166.7C184.025 166.7 182.285 167.168 181.085 168.104C179.909 169.016 179.105 170.348 178.673 172.1C178.241 173.852 178.025 175.988 178.025 178.508C178.025 181.028 178.229 183.152 178.637 184.88C179.069 186.608 179.873 187.916 181.049 188.804C182.249 189.668 184.001 190.1 186.305 190.1Z" fill="#F4F4F4" fill-opacity="0.572549"/>
<path d="M147.024 191V165.8H148.32V189.776H160.596V191H147.024Z" fill="#F4F4F4" fill-opacity="0.572549"/>
<path d="M98.5284 191V167.024H90.1404V165.8H108.14V167.024H99.8244V191H98.5284Z" fill="#F4F4F4" fill-opacity="0.572549"/>
<path d="M65.9891 191V167.024H57.6011V165.8H75.6011V167.024H67.2851V191H65.9891Z" fill="#F4F4F4" fill-opacity="0.572549"/>
<path d="M26.9919 191V165.8H41.7159V167.024H28.2879V177.5H39.5559V178.724H28.2879V189.776H41.7159V191H26.9919Z" fill="#F4F4F4" fill-opacity="0.572549"/>
<path d="M0.647949 193.628V192.404C1.70395 192.404 2.55595 192.368 3.20395 192.296C3.85195 192.248 4.34395 192.068 4.67995 191.756C5.03995 191.468 5.27995 191 5.39995 190.352C5.51995 189.68 5.57995 188.744 5.57995 187.544V165.8H6.87595V188.084C6.87595 189.428 6.75595 190.472 6.51595 191.216C6.27595 191.984 5.89195 192.536 5.36395 192.872C4.85995 193.208 4.21195 193.412 3.41995 193.484C2.65195 193.58 1.72795 193.628 0.647949 193.628Z" fill="#F4F4F4" fill-opacity="0.572549"/>
</svg>
